<?xml version="1.0" encoding="UTF-8" standalone="no"?>
<!-- This is a Stata 15.1 generated SVG file (http://www.stata.com) -->

<svg version="1.1" width="5.50in" height="4.00in" viewBox="0 0 3960 2880" xmlns="http://www.w3.org/2000/svg" xmlns:xlink="http://www.w3.org/1999/xlink">
	<desc>Stata Graph - Graph</desc>
	<rect x="0" y="0" width="3960" height="2880" style="fill:#EAF2F3;stroke:none"/>
	<rect x="0.00" y="0.00" width="3959.88" height="2880.00" style="fill:#EAF2F3"/>
	<rect x="2.88" y="2.88" width="3954.12" height="2874.24" style="fill:none;stroke:#EAF2F3;stroke-width:5.76"/>
	<rect x="553.53" y="275.35" width="3305.49" height="2213.83" style="fill:#FFFFFF"/>
	<rect x="556.41" y="278.23" width="3299.73" height="2208.07" style="fill:none;stroke:#FFFFFF;stroke-width:5.76"/>
	<line x1="553.53" y1="2489.19" x2="3859.02" y2="2489.19" style="stroke:#EAF2F3;stroke-width:8.64"/>
	<line x1="553.53" y1="2059.14" x2="3859.02" y2="2059.14" style="stroke:#EAF2F3;stroke-width:8.64"/>
	<line x1="553.53" y1="1628.97" x2="3859.02" y2="1628.97" style="stroke:#EAF2F3;stroke-width:8.64"/>
	<line x1="553.53" y1="1198.93" x2="3859.02" y2="1198.93" style="stroke:#EAF2F3;stroke-width:8.64"/>
	<line x1="553.53" y1="768.76" x2="3859.02" y2="768.76" style="stroke:#EAF2F3;stroke-width:8.64"/>
	<line x1="553.53" y1="338.71" x2="3859.02" y2="338.71" style="stroke:#EAF2F3;stroke-width:8.64"/>
	<rect x="679.26" y="460.86" width="124.62" height="2028.33" style="fill:#7B92A8"/>
	<rect x="683.58" y="465.18" width="115.98" height="2019.69" style="fill:none;stroke:#3E647D;stroke-width:8.64"/>
	<rect x="803.88" y="2470.25" width="124.62" height="18.93" style="fill:#7B92A8"/>
	<rect x="808.20" y="2474.57" width="115.98" height="10.29" style="fill:none;stroke:#3E647D;stroke-width:8.64"/>
	<rect x="928.50" y="2441.05" width="124.74" height="48.14" style="fill:#7B92A8"/>
	<rect x="932.82" y="2445.36" width="116.10" height="39.50" style="fill:none;stroke:#3E647D;stroke-width:8.64"/>
	<rect x="1053.24" y="2471.98" width="124.62" height="17.20" style="fill:#7B92A8"/>
	<rect x="1057.56" y="2476.30" width="115.98" height="8.56" style="fill:none;stroke:#3E647D;stroke-width:8.64"/>
	<rect x="1177.85" y="2478.91" width="124.62" height="10.27" style="fill:#7B92A8"/>
	<rect x="1182.17" y="2483.23" width="115.98" height="1.63" style="fill:none;stroke:#3E647D;stroke-width:8.64"/>
	<rect x="1302.47" y="2394.64" width="124.74" height="94.55" style="fill:#7B92A8"/>
	<rect x="1306.79" y="2398.96" width="116.10" height="85.91" style="fill:none;stroke:#3E647D;stroke-width:8.64"/>
	<rect x="1427.21" y="2480.65" width="124.62" height="8.54" style="fill:#7B92A8"/>
	<rect x="1431.53" y="2484.87" width="115.98" height="0.10" style="fill:none;stroke:#3E647D;stroke-width:8.64"/>
	<rect x="1551.83" y="2456.51" width="124.62" height="32.67" style="fill:#7B92A8"/>
	<rect x="1556.14" y="2460.83" width="115.98" height="24.03" style="fill:none;stroke:#3E647D;stroke-width:8.64"/>
	<rect x="1925.80" y="2382.51" width="124.74" height="106.68" style="fill:#7B92A8"/>
	<rect x="1930.12" y="2386.83" width="116.10" height="98.04" style="fill:none;stroke:#3E647D;stroke-width:8.64"/>
	<rect x="2549.13" y="2480.65" width="124.62" height="8.54" style="fill:#7B92A8"/>
	<rect x="2553.45" y="2484.87" width="115.98" height="0.10" style="fill:none;stroke:#3E647D;stroke-width:8.64"/>
	<rect x="3172.45" y="2478.91" width="124.62" height="10.27" style="fill:#7B92A8"/>
	<rect x="3176.77" y="2483.23" width="115.98" height="1.63" style="fill:none;stroke:#3E647D;stroke-width:8.64"/>
	<rect x="3546.43" y="2487.45" width="124.62" height="1.73" style="fill:#7B92A8"/>
	<rect x="3550.75" y="2484.87" width="115.98" height="6.91" style="fill:none;stroke:#3E647D;stroke-width:8.64"/>
	<rect x="3671.04" y="2487.45" width="124.74" height="1.73" style="fill:#7B92A8"/>
	<rect x="3675.36" y="2484.87" width="116.10" height="6.91" style="fill:none;stroke:#3E647D;stroke-width:8.64"/>
	<line x1="553.53" y1="2489.19" x2="553.53" y2="275.35" style="stroke:#000000;stroke-width:5.76"/>
	<line x1="553.53" y1="2489.19" x2="513.56" y2="2489.19" style="stroke:#000000;stroke-width:5.76"/>
	<text x="493.51" y="2524.21" style="font-family:'Helvetica';font-size:99.99px;fill:#000000" text-anchor="end">0</text>
	<line x1="553.53" y1="2059.14" x2="513.56" y2="2059.14" style="stroke:#000000;stroke-width:5.76"/>
	<text x="493.51" y="2094.17" style="font-family:'Helvetica';font-size:99.99px;fill:#000000" text-anchor="end">250</text>
	<line x1="553.53" y1="1628.97" x2="513.56" y2="1628.97" style="stroke:#000000;stroke-width:5.76"/>
	<text x="493.51" y="1664.00" style="font-family:'Helvetica';font-size:99.99px;fill:#000000" text-anchor="end">500</text>
	<line x1="553.53" y1="1198.93" x2="513.56" y2="1198.93" style="stroke:#000000;stroke-width:5.76"/>
	<text x="493.51" y="1233.96" style="font-family:'Helvetica';font-size:99.99px;fill:#000000" text-anchor="end">750</text>
	<line x1="553.53" y1="768.76" x2="513.56" y2="768.76" style="stroke:#000000;stroke-width:5.76"/>
	<text x="493.51" y="803.79" style="font-family:'Helvetica';font-size:99.99px;fill:#000000" text-anchor="end">1000</text>
	<line x1="553.53" y1="338.71" x2="513.56" y2="338.71" style="stroke:#000000;stroke-width:5.76"/>
	<text x="493.51" y="373.74" style="font-family:'Helvetica';font-size:99.99px;fill:#000000" text-anchor="end">1250</text>
	<text x="190.71" y="1382.33" style="font-family:'Helvetica';font-size:99.99px;fill:#000000" transform="rotate(-90 190.71,1382.33)" text-anchor="middle">Frequency</text>
	<line x1="553.53" y1="2489.19" x2="3859.02" y2="2489.19" style="stroke:#000000;stroke-width:5.76"/>
	<line x1="679.26" y1="2489.19" x2="679.26" y2="2529.16" style="stroke:#000000;stroke-width:5.76"/>
	<text x="679.26" y="2619.14" style="font-family:'Helvetica';font-size:99.99px;fill:#000000" text-anchor="middle">0</text>
	<line x1="1302.47" y1="2489.19" x2="1302.47" y2="2529.16" style="stroke:#000000;stroke-width:5.76"/>
	<text x="1302.47" y="2619.14" style="font-family:'Helvetica';font-size:99.99px;fill:#000000" text-anchor="middle">10</text>
	<line x1="1925.80" y1="2489.19" x2="1925.80" y2="2529.16" style="stroke:#000000;stroke-width:5.76"/>
	<text x="1925.80" y="2619.14" style="font-family:'Helvetica';font-size:99.99px;fill:#000000" text-anchor="middle">20</text>
	<line x1="2549.13" y1="2489.19" x2="2549.13" y2="2529.16" style="stroke:#000000;stroke-width:5.76"/>
	<text x="2549.13" y="2619.14" style="font-family:'Helvetica';font-size:99.99px;fill:#000000" text-anchor="middle">30</text>
	<line x1="3172.45" y1="2489.19" x2="3172.45" y2="2529.16" style="stroke:#000000;stroke-width:5.76"/>
	<text x="3172.45" y="2619.14" style="font-family:'Helvetica';font-size:99.99px;fill:#000000" text-anchor="middle">40</text>
	<line x1="3795.78" y1="2489.19" x2="3795.78" y2="2529.16" style="stroke:#000000;stroke-width:5.76"/>
	<text x="3795.78" y="2619.14" style="font-family:'Helvetica';font-size:99.99px;fill:#000000" text-anchor="middle">50</text>
	<text x="2206.34" y="2729.16" style="font-family:'Helvetica';font-size:99.99px;fill:#000000" text-anchor="middle">Cigarettes Smoked Per Day While Pregnant</text>
	<text x="2206.34" y="215.98" style="font-family:'Helvetica';font-size:139.96px;fill:#1E2D53" text-anchor="middle">Cigarette Smoking among Pregnant Women</text>
</svg>
