<?xml version="1.0" encoding="UTF-8" standalone="no"?>
<!-- This is a Stata 15.1 generated SVG file (http://www.stata.com) -->

<svg version="1.1" width="5.50in" height="4.00in" viewBox="0 0 3960 2880" xmlns="http://www.w3.org/2000/svg" xmlns:xlink="http://www.w3.org/1999/xlink">
	<desc>Stata Graph - Graph</desc>
	<rect x="0" y="0" width="3960" height="2880" style="fill:#EAF2F3;stroke:none"/>
	<rect x="0.00" y="0.00" width="3959.88" height="2880.00" style="fill:#EAF2F3"/>
	<rect x="2.88" y="2.88" width="3954.12" height="2874.24" style="fill:none;stroke:#EAF2F3;stroke-width:5.76"/>
	<rect x="390.80" y="275.35" width="3468.22" height="2213.83" style="fill:#FFFFFF"/>
	<rect x="393.68" y="278.23" width="3462.46" height="2208.07" style="fill:none;stroke:#FFFFFF;stroke-width:5.76"/>
	<line x1="390.80" y1="2489.19" x2="3859.02" y2="2489.19" style="stroke:#EAF2F3;stroke-width:8.64"/>
	<line x1="390.80" y1="1795.54" x2="3859.02" y2="1795.54" style="stroke:#EAF2F3;stroke-width:8.64"/>
	<line x1="390.80" y1="1101.78" x2="3859.02" y2="1101.78" style="stroke:#EAF2F3;stroke-width:8.64"/>
	<line x1="390.80" y1="408.14" x2="3859.02" y2="408.14" style="stroke:#EAF2F3;stroke-width:8.64"/>
	<rect x="519.63" y="2385.11" width="131.05" height="104.08" style="fill:#7B92A8"/>
	<rect x="523.95" y="2389.43" width="122.41" height="95.44" style="fill:none;stroke:#3E647D;stroke-width:8.64"/>
	<rect x="650.68" y="2107.65" width="131.05" height="381.53" style="fill:#7B92A8"/>
	<rect x="655.00" y="2111.97" width="122.41" height="372.89" style="fill:none;stroke:#3E647D;stroke-width:8.64"/>
	<rect x="781.73" y="1517.96" width="131.05" height="971.22" style="fill:#7B92A8"/>
	<rect x="786.05" y="1522.28" width="122.41" height="962.58" style="fill:none;stroke:#3E647D;stroke-width:8.64"/>
	<rect x="912.78" y="2142.30" width="131.05" height="346.88" style="fill:#7B92A8"/>
	<rect x="917.10" y="2146.62" width="122.41" height="338.24" style="fill:none;stroke:#3E647D;stroke-width:8.64"/>
	<rect x="1043.83" y="2281.16" width="131.05" height="208.03" style="fill:#7B92A8"/>
	<rect x="1048.15" y="2285.47" width="122.41" height="199.39" style="fill:none;stroke:#3E647D;stroke-width:8.64"/>
	<rect x="1174.88" y="581.52" width="131.05" height="1907.67" style="fill:#7B92A8"/>
	<rect x="1179.20" y="585.84" width="122.41" height="1899.03" style="fill:none;stroke:#3E647D;stroke-width:8.64"/>
	<rect x="1305.93" y="2315.81" width="131.05" height="173.38" style="fill:#7B92A8"/>
	<rect x="1310.25" y="2320.13" width="122.41" height="164.74" style="fill:none;stroke:#3E647D;stroke-width:8.64"/>
	<rect x="1436.98" y="1830.20" width="131.05" height="658.99" style="fill:#7B92A8"/>
	<rect x="1441.30" y="1834.52" width="122.41" height="650.35" style="fill:none;stroke:#3E647D;stroke-width:8.64"/>
	<rect x="1830.14" y="338.71" width="130.93" height="2150.47" style="fill:#7B92A8"/>
	<rect x="1834.46" y="343.03" width="122.29" height="2141.83" style="fill:none;stroke:#3E647D;stroke-width:8.64"/>
	<rect x="2485.27" y="2315.81" width="131.05" height="173.38" style="fill:#7B92A8"/>
	<rect x="2489.59" y="2320.13" width="122.41" height="164.74" style="fill:none;stroke:#3E647D;stroke-width:8.64"/>
	<rect x="3140.53" y="2281.16" width="131.05" height="208.03" style="fill:#7B92A8"/>
	<rect x="3144.85" y="2285.47" width="122.41" height="199.39" style="fill:none;stroke:#3E647D;stroke-width:8.64"/>
	<rect x="3533.68" y="2454.53" width="131.05" height="34.65" style="fill:#7B92A8"/>
	<rect x="3538.00" y="2458.85" width="122.41" height="26.01" style="fill:none;stroke:#3E647D;stroke-width:8.64"/>
	<rect x="3664.73" y="2454.53" width="130.93" height="34.65" style="fill:#7B92A8"/>
	<rect x="3669.05" y="2458.85" width="122.29" height="26.01" style="fill:none;stroke:#3E647D;stroke-width:8.64"/>
	<line x1="390.80" y1="2489.19" x2="390.80" y2="275.35" style="stroke:#000000;stroke-width:5.76"/>
	<line x1="390.80" y1="2489.19" x2="350.83" y2="2489.19" style="stroke:#000000;stroke-width:5.76"/>
	<text x="300.72" y="2489.19" style="font-family:'Helvetica';font-size:99.99px;fill:#000000" transform="rotate(-90 300.72,2489.19)" text-anchor="middle">0</text>
	<line x1="390.80" y1="1795.54" x2="350.83" y2="1795.54" style="stroke:#000000;stroke-width:5.76"/>
	<text x="300.72" y="1795.54" style="font-family:'Helvetica';font-size:99.99px;fill:#000000" transform="rotate(-90 300.72,1795.54)" text-anchor="middle">20</text>
	<line x1="390.80" y1="1101.78" x2="350.83" y2="1101.78" style="stroke:#000000;stroke-width:5.76"/>
	<text x="300.72" y="1101.78" style="font-family:'Helvetica';font-size:99.99px;fill:#000000" transform="rotate(-90 300.72,1101.78)" text-anchor="middle">40</text>
	<line x1="390.80" y1="408.14" x2="350.83" y2="408.14" style="stroke:#000000;stroke-width:5.76"/>
	<text x="300.72" y="408.14" style="font-family:'Helvetica';font-size:99.99px;fill:#000000" transform="rotate(-90 300.72,408.14)" text-anchor="middle">60</text>
	<text x="190.71" y="1382.33" style="font-family:'Helvetica';font-size:99.99px;fill:#000000" transform="rotate(-90 190.71,1382.33)" text-anchor="middle">Frequency</text>
	<line x1="390.80" y1="2489.19" x2="3859.02" y2="2489.19" style="stroke:#000000;stroke-width:5.76"/>
	<line x1="519.63" y1="2489.19" x2="519.63" y2="2529.16" style="stroke:#000000;stroke-width:5.76"/>
	<text x="519.63" y="2619.14" style="font-family:'Helvetica';font-size:99.99px;fill:#000000" text-anchor="middle">0</text>
	<line x1="1174.88" y1="2489.19" x2="1174.88" y2="2529.16" style="stroke:#000000;stroke-width:5.76"/>
	<text x="1174.88" y="2619.14" style="font-family:'Helvetica';font-size:99.99px;fill:#000000" text-anchor="middle">10</text>
	<line x1="1830.14" y1="2489.19" x2="1830.14" y2="2529.16" style="stroke:#000000;stroke-width:5.76"/>
	<text x="1830.14" y="2619.14" style="font-family:'Helvetica';font-size:99.99px;fill:#000000" text-anchor="middle">20</text>
	<line x1="2485.27" y1="2489.19" x2="2485.27" y2="2529.16" style="stroke:#000000;stroke-width:5.76"/>
	<text x="2485.27" y="2619.14" style="font-family:'Helvetica';font-size:99.99px;fill:#000000" text-anchor="middle">30</text>
	<line x1="3140.53" y1="2489.19" x2="3140.53" y2="2529.16" style="stroke:#000000;stroke-width:5.76"/>
	<text x="3140.53" y="2619.14" style="font-family:'Helvetica';font-size:99.99px;fill:#000000" text-anchor="middle">40</text>
	<line x1="3795.66" y1="2489.19" x2="3795.66" y2="2529.16" style="stroke:#000000;stroke-width:5.76"/>
	<text x="3795.66" y="2619.14" style="font-family:'Helvetica';font-size:99.99px;fill:#000000" text-anchor="middle">50</text>
	<text x="2124.91" y="2729.16" style="font-family:'Helvetica';font-size:99.99px;fill:#000000" text-anchor="middle">Cigarettes Smoked Per Day While Pregnant</text>
	<text x="2124.91" y="215.98" style="font-family:'Helvetica';font-size:139.96px;fill:#1E2D53" text-anchor="middle">Cigarette Smoking among Pregnant Smokers</text>
</svg>
