<?xml version="1.0" encoding="UTF-8" standalone="no"?>
<!-- This is a Stata 15.1 generated SVG file (http://www.stata.com) -->

<svg version="1.1" width="5.50in" height="4.00in" viewBox="0 0 3960 2880" xmlns="http://www.w3.org/2000/svg" xmlns:xlink="http://www.w3.org/1999/xlink">
	<desc>Stata Graph - Graph</desc>
	<rect x="0" y="0" width="3960" height="2880" style="fill:#EAF2F3;stroke:none"/>
	<rect x="0.00" y="0.00" width="3959.88" height="2880.00" style="fill:#EAF2F3"/>
	<rect x="2.88" y="2.88" width="3954.12" height="2874.24" style="fill:none;stroke:#EAF2F3;stroke-width:5.76"/>
	<rect x="388.33" y="258.27" width="1683.50" height="2118.79" style="fill:#FFFFFF"/>
	<rect x="390.78" y="260.72" width="1678.60" height="2113.89" style="fill:none;stroke:#FFFFFF;stroke-width:4.90"/>
	<line x1="388.33" y1="2377.06" x2="2071.82" y2="2377.06" style="stroke:#EAF2F3;stroke-width:7.34"/>
	<line x1="388.33" y1="312.11" x2="2071.82" y2="312.11" style="stroke:#EAF2F3;stroke-width:7.34"/>
	<rect x="2141.00" y="258.27" width="1683.49" height="2118.79" style="fill:#FFFFFF"/>
	<rect x="2143.45" y="260.72" width="1678.60" height="2113.89" style="fill:none;stroke:#FFFFFF;stroke-width:4.90"/>
	<line x1="2141.00" y1="2377.06" x2="3824.49" y2="2377.06" style="stroke:#EAF2F3;stroke-width:7.34"/>
	<line x1="2141.00" y1="312.11" x2="3824.49" y2="312.11" style="stroke:#EAF2F3;stroke-width:7.34"/>
	<rect x="634.34" y="2373.60" width="76.85" height="3.47" style="fill:#97B6B0"/>
	<rect x="638.01" y="2373.39" width="69.50" height="3.88" style="fill:none;stroke:#7E9893;stroke-width:7.34"/>
	<rect x="711.19" y="2373.60" width="76.97" height="3.47" style="fill:#97B6B0"/>
	<rect x="714.86" y="2373.39" width="69.63" height="3.88" style="fill:none;stroke:#7E9893;stroke-width:7.34"/>
	<rect x="788.16" y="2373.60" width="76.85" height="3.47" style="fill:#97B6B0"/>
	<rect x="791.84" y="2373.39" width="69.50" height="3.88" style="fill:none;stroke:#7E9893;stroke-width:7.34"/>
	<rect x="865.01" y="2370.13" width="76.85" height="6.93" style="fill:#97B6B0"/>
	<rect x="868.68" y="2373.39" width="69.50" height="0.41" style="fill:none;stroke:#7E9893;stroke-width:7.34"/>
	<rect x="941.86" y="2348.97" width="76.85" height="28.09" style="fill:#97B6B0"/>
	<rect x="945.53" y="2352.64" width="69.50" height="20.75" style="fill:none;stroke:#7E9893;stroke-width:7.34"/>
	<rect x="1018.71" y="2356.03" width="76.85" height="21.04" style="fill:#97B6B0"/>
	<rect x="1022.38" y="2359.70" width="69.50" height="13.69" style="fill:none;stroke:#7E9893;stroke-width:7.34"/>
	<rect x="1095.56" y="2331.40" width="76.85" height="45.67" style="fill:#97B6B0"/>
	<rect x="1099.23" y="2335.07" width="69.50" height="38.32" style="fill:none;stroke:#7E9893;stroke-width:7.34"/>
	<rect x="1172.41" y="2278.68" width="76.97" height="98.38" style="fill:#97B6B0"/>
	<rect x="1176.08" y="2282.35" width="69.63" height="91.04" style="fill:none;stroke:#7E9893;stroke-width:7.34"/>
	<rect x="1249.38" y="2222.50" width="76.85" height="154.57" style="fill:#97B6B0"/>
	<rect x="1253.05" y="2226.17" width="69.50" height="147.22" style="fill:none;stroke:#7E9893;stroke-width:7.34"/>
	<rect x="1326.23" y="2215.44" width="76.85" height="161.62" style="fill:#97B6B0"/>
	<rect x="1329.90" y="2219.11" width="69.50" height="154.28" style="fill:none;stroke:#7E9893;stroke-width:7.34"/>
	<rect x="1403.08" y="749.70" width="76.85" height="1627.36" style="fill:#97B6B0"/>
	<rect x="1406.75" y="753.37" width="69.50" height="1620.02" style="fill:none;stroke:#7E9893;stroke-width:7.34"/>
	<rect x="1479.93" y="2011.50" width="76.85" height="365.57" style="fill:#97B6B0"/>
	<rect x="1483.60" y="2015.17" width="69.50" height="358.23" style="fill:none;stroke:#7E9893;stroke-width:7.34"/>
	<rect x="1556.78" y="1895.54" width="76.85" height="481.53" style="fill:#97B6B0"/>
	<rect x="1560.45" y="1899.21" width="69.50" height="474.18" style="fill:none;stroke:#7E9893;stroke-width:7.34"/>
	<rect x="1633.62" y="2240.07" width="76.97" height="137.00" style="fill:#97B6B0"/>
	<rect x="1637.30" y="2243.74" width="69.63" height="129.65" style="fill:none;stroke:#7E9893;stroke-width:7.34"/>
	<rect x="1710.60" y="1698.77" width="76.85" height="678.29" style="fill:#97B6B0"/>
	<rect x="1714.27" y="1702.44" width="69.50" height="670.95" style="fill:none;stroke:#7E9893;stroke-width:7.34"/>
	<rect x="1787.44" y="2064.34" width="76.85" height="312.73" style="fill:#97B6B0"/>
	<rect x="1791.12" y="2068.01" width="69.50" height="305.38" style="fill:none;stroke:#7E9893;stroke-width:7.34"/>
	<rect x="2694.53" y="2357.63" width="76.85" height="19.43" style="fill:#97B6B0"/>
	<rect x="2698.20" y="2361.31" width="69.50" height="12.09" style="fill:none;stroke:#7E9893;stroke-width:7.34"/>
	<rect x="2771.38" y="2357.63" width="76.85" height="19.43" style="fill:#97B6B0"/>
	<rect x="2775.05" y="2361.31" width="69.50" height="12.09" style="fill:none;stroke:#7E9893;stroke-width:7.34"/>
	<rect x="2848.23" y="2221.26" width="76.85" height="155.81" style="fill:#97B6B0"/>
	<rect x="2851.90" y="2224.93" width="69.50" height="148.46" style="fill:none;stroke:#7E9893;stroke-width:7.34"/>
	<rect x="2925.08" y="2084.88" width="76.85" height="292.18" style="fill:#97B6B0"/>
	<rect x="2928.75" y="2088.55" width="69.50" height="284.84" style="fill:none;stroke:#7E9893;stroke-width:7.34"/>
	<rect x="3001.93" y="1870.54" width="76.97" height="506.52" style="fill:#97B6B0"/>
	<rect x="3005.60" y="1874.21" width="69.63" height="499.18" style="fill:none;stroke:#7E9893;stroke-width:7.34"/>
	<rect x="3078.90" y="1968.06" width="76.85" height="409.01" style="fill:#97B6B0"/>
	<rect x="3082.57" y="1971.73" width="69.50" height="401.66" style="fill:none;stroke:#7E9893;stroke-width:7.34"/>
	<rect x="3155.75" y="448.48" width="76.85" height="1928.58" style="fill:#97B6B0"/>
	<rect x="3159.42" y="452.16" width="69.50" height="1921.24" style="fill:none;stroke:#7E9893;stroke-width:7.34"/>
	<rect x="3232.60" y="2026.47" width="76.85" height="350.59" style="fill:#97B6B0"/>
	<rect x="3236.27" y="2030.14" width="69.50" height="343.25" style="fill:none;stroke:#7E9893;stroke-width:7.34"/>
	<rect x="3309.45" y="2104.31" width="76.85" height="272.75" style="fill:#97B6B0"/>
	<rect x="3313.12" y="2107.98" width="69.50" height="265.41" style="fill:none;stroke:#7E9893;stroke-width:7.34"/>
	<rect x="3386.30" y="2338.21" width="76.85" height="38.86" style="fill:#97B6B0"/>
	<rect x="3389.97" y="2341.88" width="69.50" height="31.51" style="fill:none;stroke:#7E9893;stroke-width:7.34"/>
	<rect x="3463.14" y="2279.67" width="76.97" height="97.39" style="fill:#97B6B0"/>
	<rect x="3466.82" y="2283.34" width="69.63" height="90.05" style="fill:none;stroke:#7E9893;stroke-width:7.34"/>
	<rect x="3540.12" y="2338.21" width="76.85" height="38.86" style="fill:#97B6B0"/>
	<rect x="3543.79" y="2341.88" width="69.50" height="31.51" style="fill:none;stroke:#7E9893;stroke-width:7.34"/>
	<line x1="388.33" y1="2377.06" x2="388.33" y2="258.27" style="stroke:#000000;stroke-width:4.90"/>
	<line x1="388.33" y1="2377.06" x2="354.30" y2="2377.06" style="stroke:#000000;stroke-width:4.90"/>
	<text x="311.78" y="2377.06" style="font-family:'Helvetica';font-size:85.02px;fill:#000000" transform="rotate(-90 311.78,2377.06)" text-anchor="middle">0</text>
	<line x1="388.33" y1="312.11" x2="354.30" y2="312.11" style="stroke:#000000;stroke-width:4.90"/>
	<text x="311.78" y="312.11" style="font-family:'Helvetica';font-size:85.02px;fill:#000000" transform="rotate(-90 311.78,312.11)" text-anchor="middle">.5</text>
	<line x1="388.33" y1="2377.06" x2="2071.82" y2="2377.06" style="stroke:#000000;stroke-width:4.90"/>
	<line x1="480.64" y1="2377.06" x2="480.64" y2="2411.10" style="stroke:#000000;stroke-width:4.90"/>
	<text x="480.64" y="2487.50" style="font-family:'Helvetica';font-size:85.02px;fill:#000000" text-anchor="middle">0</text>
	<line x1="865.01" y1="2377.06" x2="865.01" y2="2411.10" style="stroke:#000000;stroke-width:4.90"/>
	<text x="865.01" y="2487.50" style="font-family:'Helvetica';font-size:85.02px;fill:#000000" text-anchor="middle">5</text>
	<line x1="1249.38" y1="2377.06" x2="1249.38" y2="2411.10" style="stroke:#000000;stroke-width:4.90"/>
	<text x="1249.38" y="2487.50" style="font-family:'Helvetica';font-size:85.02px;fill:#000000" text-anchor="middle">10</text>
	<line x1="1633.62" y1="2377.06" x2="1633.62" y2="2411.10" style="stroke:#000000;stroke-width:4.90"/>
	<text x="1633.62" y="2487.50" style="font-family:'Helvetica';font-size:85.02px;fill:#000000" text-anchor="middle">15</text>
	<line x1="2017.99" y1="2377.06" x2="2017.99" y2="2411.10" style="stroke:#000000;stroke-width:4.90"/>
	<text x="2017.99" y="2487.50" style="font-family:'Helvetica';font-size:85.02px;fill:#000000" text-anchor="middle">20</text>
	<line x1="2141.00" y1="2377.06" x2="3824.49" y2="2377.06" style="stroke:#000000;stroke-width:4.90"/>
	<line x1="2233.32" y1="2377.06" x2="2233.32" y2="2411.10" style="stroke:#000000;stroke-width:4.90"/>
	<text x="2233.32" y="2487.50" style="font-family:'Helvetica';font-size:85.02px;fill:#000000" text-anchor="middle">0</text>
	<line x1="2617.68" y1="2377.06" x2="2617.68" y2="2411.10" style="stroke:#000000;stroke-width:4.90"/>
	<text x="2617.68" y="2487.50" style="font-family:'Helvetica';font-size:85.02px;fill:#000000" text-anchor="middle">5</text>
	<line x1="3001.93" y1="2377.06" x2="3001.93" y2="2411.10" style="stroke:#000000;stroke-width:4.90"/>
	<text x="3001.93" y="2487.50" style="font-family:'Helvetica';font-size:85.02px;fill:#000000" text-anchor="middle">10</text>
	<line x1="3386.30" y1="2377.06" x2="3386.30" y2="2411.10" style="stroke:#000000;stroke-width:4.90"/>
	<text x="3386.30" y="2487.50" style="font-family:'Helvetica';font-size:85.02px;fill:#000000" text-anchor="middle">15</text>
	<line x1="3770.66" y1="2377.06" x2="3770.66" y2="2411.10" style="stroke:#000000;stroke-width:4.90"/>
	<text x="3770.66" y="2487.50" style="font-family:'Helvetica';font-size:85.02px;fill:#000000" text-anchor="middle">20</text>
	<rect x="388.33" y="135.39" width="1683.50" height="122.89" style="fill:#D9E6EB"/>
	<rect x="390.78" y="137.83" width="1678.60" height="117.99" style="fill:none;stroke:#D9E6EB;stroke-width:4.90"/>
	<text x="1230.08" y="215.42" style="font-family:'Helvetica';font-size:93.56px;fill:#000000" text-anchor="middle">Non-smokers</text>
	<rect x="2141.00" y="135.39" width="1683.49" height="122.89" style="fill:#D9E6EB"/>
	<rect x="2143.45" y="137.83" width="1678.60" height="117.99" style="fill:none;stroke:#D9E6EB;stroke-width:4.90"/>
	<text x="2982.75" y="215.42" style="font-family:'Helvetica';font-size:93.56px;fill:#000000" text-anchor="middle">Smoked while pregnant</text>
	<text x="170.79" y="1332.71" style="font-family:'Helvetica';font-size:99.99px;fill:#000000" transform="rotate(-90 170.79,1332.71)" text-anchor="middle">Density</text>
	<text x="2029.99" y="2634.61" style="font-family:'Helvetica';font-size:99.99px;fill:#000000" text-anchor="middle">Mother's Years of Education</text>
	<text x="218.05" y="2737.89" style="font-family:'Helvetica';font-size:79.94px;fill:#000000">Graphs by =1 if mother smoked while pregnant</text>
</svg>
