<?xml version="1.0" encoding="UTF-8" standalone="no"?>
<!-- This is a Stata 15.1 generated SVG file (http://www.stata.com) -->

<svg version="1.1" width="10.00in" height="5.00in" viewBox="0 0 7200 3600" xmlns="http://www.w3.org/2000/svg" xmlns:xlink="http://www.w3.org/1999/xlink">
	<desc>Stata Graph - Graph</desc>
	<rect x="0" y="0" width="7200" height="3600" style="fill:#EAF2F3;stroke:none"/>
	<rect x="0.00" y="0.00" width="7200.00" height="3600.00" style="fill:#EAF2F3"/>
	<rect x="3.60" y="3.60" width="7192.80" height="3592.80" style="fill:none;stroke:#EAF2F3;stroke-width:7.20"/>
	<rect x="485.55" y="322.88" width="3229.42" height="2648.47" style="fill:#FFFFFF"/>
	<rect x="488.61" y="325.94" width="3223.30" height="2642.36" style="fill:none;stroke:#FFFFFF;stroke-width:6.12"/>
	<line x1="485.55" y1="2971.35" x2="3714.97" y2="2971.35" style="stroke:#EAF2F3;stroke-width:9.18"/>
	<line x1="485.55" y1="390.15" x2="3714.97" y2="390.15" style="stroke:#EAF2F3;stroke-width:9.18"/>
	<rect x="3801.38" y="322.88" width="3229.43" height="2648.47" style="fill:#FFFFFF"/>
	<rect x="3804.43" y="325.94" width="3223.31" height="2642.36" style="fill:none;stroke:#FFFFFF;stroke-width:6.12"/>
	<line x1="3801.38" y1="2971.35" x2="7030.80" y2="2971.35" style="stroke:#EAF2F3;stroke-width:9.18"/>
	<line x1="3801.38" y1="390.15" x2="7030.80" y2="390.15" style="stroke:#EAF2F3;stroke-width:9.18"/>
	<rect x="930.15" y="2967.07" width="150.98" height="4.28" style="fill:#97B6B0"/>
	<rect x="934.74" y="2966.76" width="141.80" height="4.90" style="fill:none;stroke:#7E9893;stroke-width:9.18"/>
	<rect x="1081.12" y="2967.07" width="150.97" height="4.28" style="fill:#97B6B0"/>
	<rect x="1085.71" y="2966.76" width="141.79" height="4.90" style="fill:none;stroke:#7E9893;stroke-width:9.18"/>
	<rect x="1232.10" y="2967.07" width="150.98" height="4.28" style="fill:#97B6B0"/>
	<rect x="1236.69" y="2966.76" width="141.80" height="4.90" style="fill:none;stroke:#7E9893;stroke-width:9.18"/>
	<rect x="1383.08" y="2962.57" width="150.97" height="8.78" style="fill:#97B6B0"/>
	<rect x="1387.66" y="2966.76" width="141.79" height="0.40" style="fill:none;stroke:#7E9893;stroke-width:9.18"/>
	<rect x="1534.05" y="2936.25" width="150.98" height="35.10" style="fill:#97B6B0"/>
	<rect x="1538.64" y="2940.84" width="141.80" height="25.92" style="fill:none;stroke:#7E9893;stroke-width:9.18"/>
	<rect x="1685.03" y="2945.03" width="150.97" height="26.32" style="fill:#97B6B0"/>
	<rect x="1689.62" y="2949.62" width="141.79" height="17.14" style="fill:none;stroke:#7E9893;stroke-width:9.18"/>
	<rect x="1836.00" y="2914.20" width="150.97" height="57.15" style="fill:#97B6B0"/>
	<rect x="1840.59" y="2918.79" width="141.79" height="47.97" style="fill:none;stroke:#7E9893;stroke-width:9.18"/>
	<rect x="1986.97" y="2848.28" width="150.97" height="123.07" style="fill:#97B6B0"/>
	<rect x="1991.56" y="2852.87" width="141.79" height="113.89" style="fill:none;stroke:#7E9893;stroke-width:9.18"/>
	<rect x="2137.95" y="2778.07" width="150.98" height="193.28" style="fill:#97B6B0"/>
	<rect x="2142.54" y="2782.66" width="141.80" height="184.10" style="fill:none;stroke:#7E9893;stroke-width:9.18"/>
	<rect x="2288.93" y="2769.30" width="150.97" height="202.05" style="fill:#97B6B0"/>
	<rect x="2293.52" y="2773.89" width="141.79" height="192.87" style="fill:none;stroke:#7E9893;stroke-width:9.18"/>
	<rect x="2439.90" y="937.12" width="150.97" height="2034.22" style="fill:#97B6B0"/>
	<rect x="2444.49" y="941.72" width="141.79" height="2025.04" style="fill:none;stroke:#7E9893;stroke-width:9.18"/>
	<rect x="2590.88" y="2514.38" width="150.97" height="456.97" style="fill:#97B6B0"/>
	<rect x="2595.47" y="2518.97" width="141.79" height="447.79" style="fill:none;stroke:#7E9893;stroke-width:9.18"/>
	<rect x="2741.85" y="2369.47" width="150.97" height="601.88" style="fill:#97B6B0"/>
	<rect x="2746.44" y="2374.07" width="141.79" height="592.70" style="fill:none;stroke:#7E9893;stroke-width:9.18"/>
	<rect x="2892.82" y="2800.12" width="150.98" height="171.22" style="fill:#97B6B0"/>
	<rect x="2897.41" y="2804.72" width="141.80" height="162.04" style="fill:none;stroke:#7E9893;stroke-width:9.18"/>
	<rect x="3043.80" y="2123.32" width="150.97" height="848.03" style="fill:#97B6B0"/>
	<rect x="3048.39" y="2127.91" width="141.79" height="838.85" style="fill:none;stroke:#7E9893;stroke-width:9.18"/>
	<rect x="3194.78" y="2580.30" width="150.97" height="391.05" style="fill:#97B6B0"/>
	<rect x="3199.37" y="2584.89" width="141.79" height="381.87" style="fill:none;stroke:#7E9893;stroke-width:9.18"/>
	<rect x="4849.88" y="2947.05" width="150.98" height="24.30" style="fill:#97B6B0"/>
	<rect x="4854.47" y="2951.64" width="141.80" height="15.12" style="fill:none;stroke:#7E9893;stroke-width:9.18"/>
	<rect x="5000.85" y="2947.05" width="150.97" height="24.30" style="fill:#97B6B0"/>
	<rect x="5005.44" y="2951.64" width="141.79" height="15.12" style="fill:none;stroke:#7E9893;stroke-width:9.18"/>
	<rect x="5151.82" y="2776.50" width="150.98" height="194.85" style="fill:#97B6B0"/>
	<rect x="5156.41" y="2781.09" width="141.80" height="185.67" style="fill:none;stroke:#7E9893;stroke-width:9.18"/>
	<rect x="5302.80" y="2606.18" width="150.97" height="365.17" style="fill:#97B6B0"/>
	<rect x="5307.39" y="2610.77" width="141.79" height="355.99" style="fill:none;stroke:#7E9893;stroke-width:9.18"/>
	<rect x="5453.77" y="2338.20" width="150.98" height="633.15" style="fill:#97B6B0"/>
	<rect x="5458.36" y="2342.79" width="141.80" height="623.97" style="fill:none;stroke:#7E9893;stroke-width:9.18"/>
	<rect x="5604.75" y="2459.93" width="150.98" height="511.42" style="fill:#97B6B0"/>
	<rect x="5609.34" y="2464.52" width="141.80" height="502.24" style="fill:none;stroke:#7E9893;stroke-width:9.18"/>
	<rect x="5755.73" y="560.47" width="150.97" height="2410.88" style="fill:#97B6B0"/>
	<rect x="5760.32" y="565.06" width="141.79" height="2401.70" style="fill:none;stroke:#7E9893;stroke-width:9.18"/>
	<rect x="5906.70" y="2533.05" width="150.98" height="438.30" style="fill:#97B6B0"/>
	<rect x="5911.29" y="2537.64" width="141.80" height="429.12" style="fill:none;stroke:#7E9893;stroke-width:9.18"/>
	<rect x="6057.68" y="2630.47" width="150.97" height="340.88" style="fill:#97B6B0"/>
	<rect x="6062.27" y="2635.07" width="141.79" height="331.69" style="fill:none;stroke:#7E9893;stroke-width:9.18"/>
	<rect x="6208.65" y="2922.75" width="150.98" height="48.60" style="fill:#97B6B0"/>
	<rect x="6213.24" y="2927.34" width="141.80" height="39.42" style="fill:none;stroke:#7E9893;stroke-width:9.18"/>
	<rect x="6359.62" y="2849.62" width="150.98" height="121.72" style="fill:#97B6B0"/>
	<rect x="6364.22" y="2854.22" width="141.80" height="112.54" style="fill:none;stroke:#7E9893;stroke-width:9.18"/>
	<rect x="6510.60" y="2922.75" width="150.97" height="48.60" style="fill:#97B6B0"/>
	<rect x="6515.19" y="2927.34" width="141.79" height="39.42" style="fill:none;stroke:#7E9893;stroke-width:9.18"/>
	<line x1="485.55" y1="2971.35" x2="485.55" y2="322.88" style="stroke:#000000;stroke-width:6.12"/>
	<line x1="485.55" y1="2971.35" x2="443.02" y2="2971.35" style="stroke:#000000;stroke-width:6.12"/>
	<text x="389.68" y="2971.35" style="font-family:'Helvetica';font-size:106.20px;fill:#000000" transform="rotate(-90 389.68,2971.35)" text-anchor="middle">0</text>
	<line x1="485.55" y1="390.15" x2="443.02" y2="390.15" style="stroke:#000000;stroke-width:6.12"/>
	<text x="389.68" y="390.15" style="font-family:'Helvetica';font-size:106.20px;fill:#000000" transform="rotate(-90 389.68,390.15)" text-anchor="middle">.5</text>
	<line x1="485.55" y1="2971.35" x2="3714.97" y2="2971.35" style="stroke:#000000;stroke-width:6.12"/>
	<line x1="628.20" y1="2971.35" x2="628.20" y2="3013.88" style="stroke:#000000;stroke-width:6.12"/>
	<text x="628.20" y="3109.25" style="font-family:'Helvetica';font-size:106.20px;fill:#000000" text-anchor="middle">0</text>
	<line x1="1383.08" y1="2971.35" x2="1383.08" y2="3013.88" style="stroke:#000000;stroke-width:6.12"/>
	<text x="1383.08" y="3109.25" style="font-family:'Helvetica';font-size:106.20px;fill:#000000" text-anchor="middle">5</text>
	<line x1="2137.95" y1="2971.35" x2="2137.95" y2="3013.88" style="stroke:#000000;stroke-width:6.12"/>
	<text x="2137.95" y="3109.25" style="font-family:'Helvetica';font-size:106.20px;fill:#000000" text-anchor="middle">10</text>
	<line x1="2892.82" y1="2971.35" x2="2892.82" y2="3013.88" style="stroke:#000000;stroke-width:6.12"/>
	<text x="2892.82" y="3109.25" style="font-family:'Helvetica';font-size:106.20px;fill:#000000" text-anchor="middle">15</text>
	<line x1="3647.70" y1="2971.35" x2="3647.70" y2="3013.88" style="stroke:#000000;stroke-width:6.12"/>
	<text x="3647.70" y="3109.25" style="font-family:'Helvetica';font-size:106.20px;fill:#000000" text-anchor="middle">20</text>
	<line x1="3801.38" y1="2971.35" x2="7030.80" y2="2971.35" style="stroke:#000000;stroke-width:6.12"/>
	<line x1="3944.03" y1="2971.35" x2="3944.03" y2="3013.88" style="stroke:#000000;stroke-width:6.12"/>
	<text x="3944.03" y="3109.25" style="font-family:'Helvetica';font-size:106.20px;fill:#000000" text-anchor="middle">0</text>
	<line x1="4698.90" y1="2971.35" x2="4698.90" y2="3013.88" style="stroke:#000000;stroke-width:6.12"/>
	<text x="4698.90" y="3109.25" style="font-family:'Helvetica';font-size:106.20px;fill:#000000" text-anchor="middle">5</text>
	<line x1="5453.77" y1="2971.35" x2="5453.77" y2="3013.88" style="stroke:#000000;stroke-width:6.12"/>
	<text x="5453.77" y="3109.25" style="font-family:'Helvetica';font-size:106.20px;fill:#000000" text-anchor="middle">10</text>
	<line x1="6208.65" y1="2971.35" x2="6208.65" y2="3013.88" style="stroke:#000000;stroke-width:6.12"/>
	<text x="6208.65" y="3109.25" style="font-family:'Helvetica';font-size:106.20px;fill:#000000" text-anchor="middle">15</text>
	<line x1="6963.52" y1="2971.35" x2="6963.52" y2="3013.88" style="stroke:#000000;stroke-width:6.12"/>
	<text x="6963.52" y="3109.25" style="font-family:'Helvetica';font-size:106.20px;fill:#000000" text-anchor="middle">20</text>
	<rect x="485.55" y="169.20" width="3229.42" height="153.68" style="fill:#D9E6EB"/>
	<rect x="488.61" y="172.26" width="3223.30" height="147.56" style="fill:none;stroke:#D9E6EB;stroke-width:6.12"/>
	<text x="2100.15" y="269.28" style="font-family:'Helvetica';font-size:116.78px;fill:#000000" text-anchor="middle">Non-smokers</text>
	<rect x="3801.38" y="169.20" width="3229.43" height="153.68" style="fill:#D9E6EB"/>
	<rect x="3804.43" y="172.26" width="3223.31" height="147.56" style="fill:none;stroke:#D9E6EB;stroke-width:6.12"/>
	<text x="5415.98" y="269.28" style="font-family:'Helvetica';font-size:116.78px;fill:#000000" text-anchor="middle">Smoked while pregnant</text>
	<text x="213.46" y="1665.90" style="font-family:'Helvetica';font-size:125.10px;fill:#000000" transform="rotate(-90 213.46,1665.90)" text-anchor="middle">Density</text>
	<text x="3662.55" y="3293.26" style="font-family:'Helvetica';font-size:125.10px;fill:#000000" text-anchor="middle">Mother's Years of Education</text>
	<text x="272.70" y="3422.32" style="font-family:'Helvetica';font-size:99.90px;fill:#000000">Graphs by Whether a mother smoked while pregnant</text>
</svg>
